<?xml version="1.0" encoding="utf-8"?>
<!-- Generator: Adobe Illustrator 23.1.1, SVG Export Plug-In . SVG Version: 6.00 Build 0)  -->
<svg version="1.1" id="Ebene_1" xmlns="http://www.w3.org/2000/svg" xmlns:xlink="http://www.w3.org/1999/xlink" x="0px" y="0px"
	 viewBox="0 0 47.6 60" style="enable-background:new 0 0 47.6 60;" xml:space="preserve">
<style type="text/css">
	.st0{fill:#313131;}
</style>
<path id="book" class="st0" d="M44.3,8H9.9C9,8,8.3,8.7,8.4,9.5C8.4,10.3,9,11,9.9,11h34.5c0.8,0,1.5-0.7,1.5-1.5
	C45.9,8.7,45.2,8,44.3,8z M46.1,15.7H9.2c-3.5,0-6.3-2.9-6.3-6.4C3,5.8,5.9,3,9.3,3h36.8c0.8,0,1.5-0.7,1.5-1.5
	c0-0.8-0.7-1.5-1.5-1.5H9.3C4.2,0,0,4.2,0,9.3v41.3C0,55.8,4.2,60,9.3,60h36.8c0.8,0,1.5-0.7,1.5-1.5V17.2
	C47.6,16.3,46.9,15.7,46.1,15.7z M44.6,55.7c0,0.7-0.6,1.3-1.3,1.3h-32c-4.5,0-8.1-3.6-8.1-8L3,16.3c0,0,1.8,2.5,5,2.5
	c2.6,0,35.3,0,35.3,0c0.7,0,1.3,0.6,1.3,1.3V55.7z"/>
</svg>
