<?xml version="1.0" encoding="utf-8"?>
<!-- Generator: Adobe Illustrator 23.1.1, SVG Export Plug-In . SVG Version: 6.00 Build 0)  -->
<svg version="1.1" id="Ebene_1" xmlns="http://www.w3.org/2000/svg" xmlns:xlink="http://www.w3.org/1999/xlink" x="0px" y="0px"
	 viewBox="0 0 63.4 60" style="enable-background:new 0 0 63.4 60;" xml:space="preserve">
<style type="text/css">
	.st0{fill:#313131;}
</style>
<path id="list-1" class="st0" d="M1.8,56.2c-0.8,0-1.5-0.7-1.5-1.5c0-0.8,0.7-1.5,1.5-1.5h59.8c0.8,0,1.5,0.7,1.5,1.5
	s-0.7,1.5-1.5,1.5H1.8z M1.8,49.6c-0.8,0-1.5-0.7-1.5-1.5c0-0.8,0.7-1.5,1.5-1.5h59.8c0.4,0,0.8,0.2,1.1,0.4
	c0.3,0.3,0.4,0.7,0.4,1.1c0,0.8-0.7,1.5-1.5,1.5H1.8z M1.8,34.8c-0.8,0-1.5-0.7-1.5-1.5c0-0.8,0.7-1.5,1.5-1.5h59.8
	c0.4,0,0.8,0.2,1.1,0.4c0.3,0.3,0.4,0.7,0.4,1.1c0,0.8-0.7,1.5-1.5,1.5H1.8z M1.8,28.2c-0.8,0-1.5-0.7-1.5-1.5
	c0-0.8,0.7-1.5,1.5-1.5h59.8c0.4,0,0.8,0.2,1.1,0.4c0.3,0.3,0.4,0.7,0.4,1.1c0,0.8-0.7,1.5-1.5,1.5H1.8z M1.8,13.4
	c-0.8,0-1.5-0.7-1.5-1.5c0-0.8,0.7-1.5,1.5-1.5h59.8c0.4,0,0.8,0.2,1.1,0.4c0.3,0.3,0.4,0.7,0.4,1.1c0,0.8-0.7,1.5-1.5,1.5L1.8,13.4
	z M1.8,6.9C1,6.9,0.3,6.2,0.3,5.4c0-0.8,0.7-1.5,1.5-1.5h59.8c0.8,0,1.5,0.7,1.5,1.5c0,0.8-0.7,1.5-1.5,1.5H1.8z"/>
</svg>
