<?xml version="1.0" encoding="utf-8"?>
<!-- Generator: Adobe Illustrator 23.1.1, SVG Export Plug-In . SVG Version: 6.00 Build 0)  -->
<svg version="1.1" id="Ebene_1" xmlns="http://www.w3.org/2000/svg" xmlns:xlink="http://www.w3.org/1999/xlink" x="0px" y="0px"
	 viewBox="0 0 46.6 60" style="enable-background:new 0 0 46.6 60;" xml:space="preserve">
<style type="text/css">
	.st0{fill:#313131;}
</style>
<g id="user-2">
	<path class="st0" d="M35.1,27.2c2.6-3,4-6.9,4-10.9c0-6-3.1-11.5-8.2-14.4c-2.3-1.3-5-2-7.6-2C17.4,0,12.1,3.3,9.3,8.5
		c-3.3,6.1-2.4,13.6,2.1,18.8C4.4,31.6,0,39.5,0,48v7.5c0,1.2,0.4,2.3,1.2,3.1C2.1,59.5,3.1,60,4.3,60h38.1c2.3,0,4.2-2,4.2-4.4V48
		C46.6,39.5,42.2,31.6,35.1,27.2z M17.2,28.3l0.8-0.3l-0.7-0.4c-6.1-3.4-8.3-11.3-5-17.5c2.2-4.1,6.4-6.7,11-6.7
		c2.1,0,4.2,0.6,6,1.6c4,2.3,6.5,6.6,6.5,11.3c0,4.7-2.4,9-6.4,11.3l-0.7,0.4l0.8,0.3c8.3,2.8,13.8,10.7,13.8,19.7v7.6
		c0,0.5-0.4,1-0.9,1h-38c-0.5,0-1-0.5-1-1V48C3.3,39.1,8.9,31.1,17.2,28.3z"/>
</g>
</svg>
